<?xml version="1.0" encoding="UTF-8" standalone="no"?><!DOCTYPE svg PUBLIC "-//W3C//DTD SVG 1.1//EN" "http://www.w3.org/Graphics/SVG/1.1/DTD/svg11.dtd"><svg width="100%" height="100%" viewBox="0 0 203 203" version="1.1" xmlns="http://www.w3.org/2000/svg" xmlns:xlink="http://www.w3.org/1999/xlink" xml:space="preserve" xmlns:serif="http://www.serif.com/" style="fill-rule:evenodd;clip-rule:evenodd;stroke-linejoin:round;stroke-miterlimit:2;"><rect id="logo_rounded_white" x="0" y="0" width="202.356" height="202.356" style="fill:none;"/><circle cx="101.178" cy="101.178" r="88.809" style="fill:#fff;"/><path d="M80.09,116.312c-0.071,0.087 -0.138,0.175 -0.201,0.266c1.648,-1.145 3.933,-0.982 5.403,0.488c1.47,1.47 1.633,3.755 0.488,5.403c0.084,-0.058 0.165,-0.119 0.245,-0.183l-27.042,27.042c-3.067,3.066 -3.323,7.79 -0.572,10.541c2.752,2.751 7.475,2.495 10.542,-0.572l66.681,-66.681c3.067,-3.067 3.324,-7.791 0.572,-10.542c-2.751,-2.751 -7.474,-2.495 -10.541,0.572l-3.112,3.112c0.065,-0.08 0.126,-0.162 0.184,-0.245c-1.648,1.144 -3.933,0.982 -5.403,-0.488c-1.47,-1.47 -1.633,-3.755 -0.488,-5.404c-0.091,0.063 -0.18,0.13 -0.266,0.201l26.808,-26.808c3.056,-3.056 3.303,-7.771 0.552,-10.522c-2.751,-2.751 -7.466,-2.503 -10.522,0.553l-66.446,66.446c-3.056,3.056 -3.304,7.77 -0.552,10.522c2.751,2.751 7.466,2.503 10.522,-0.553l3.148,-3.148Z"/></svg>