<?xml version="1.0" encoding="UTF-8" standalone="no"?><!DOCTYPE svg PUBLIC "-//W3C//DTD SVG 1.1//EN" "http://www.w3.org/Graphics/SVG/1.1/DTD/svg11.dtd"><svg width="100%" height="100%" viewBox="0 0 203 203" version="1.1" xmlns="http://www.w3.org/2000/svg" xmlns:xlink="http://www.w3.org/1999/xlink" xml:space="preserve" xmlns:serif="http://www.serif.com/" style="fill-rule:evenodd;clip-rule:evenodd;stroke-linejoin:round;stroke-miterlimit:2;"><rect id="logo_solo" x="0" y="0" width="202.356" height="202.356" style="fill:none;"/><path d="M77.284,118.326c-0.08,0.098 -0.156,0.198 -0.227,0.301c1.867,-1.297 4.456,-1.113 6.122,0.553c1.665,1.665 1.85,4.254 0.553,6.122c0.094,-0.066 0.187,-0.135 0.277,-0.208l-30.639,30.639c-3.475,3.475 -3.766,8.827 -0.648,11.945c3.117,3.117 8.469,2.826 11.944,-0.649l75.552,-75.552c3.475,-3.475 3.766,-8.827 0.649,-11.945c-3.118,-3.117 -8.47,-2.826 -11.944,0.649l-3.526,3.525c0.073,-0.09 0.143,-0.183 0.208,-0.278c-1.867,1.298 -4.456,1.113 -6.122,-0.552c-1.665,-1.666 -1.85,-4.255 -0.553,-6.123c-0.103,0.072 -0.203,0.147 -0.301,0.228l30.374,-30.375c3.463,-3.462 3.743,-8.804 0.626,-11.921c-3.117,-3.118 -8.459,-2.837 -11.922,0.625l-75.286,75.287c-3.462,3.462 -3.743,8.804 -0.626,11.921c3.117,3.118 8.459,2.837 11.922,-0.626l3.567,-3.566Z"/></svg>