<?xml version="1.0" encoding="UTF-8" standalone="no"?><!DOCTYPE svg PUBLIC "-//W3C//DTD SVG 1.1//EN" "http://www.w3.org/Graphics/SVG/1.1/DTD/svg11.dtd"><svg width="100%" height="100%" viewBox="0 0 312 113" version="1.1" xmlns="http://www.w3.org/2000/svg" xmlns:xlink="http://www.w3.org/1999/xlink" xml:space="preserve" xmlns:serif="http://www.serif.com/" style="fill-rule:evenodd;clip-rule:evenodd;stroke-linejoin:round;stroke-miterlimit:2;"><rect id="pages_header" x="0" y="0" width="312" height="112.8" style="fill:none;"/><path d="M34.289,66.527c-0.047,0.058 -0.092,0.117 -0.134,0.178c1.103,-0.766 2.632,-0.657 3.616,0.326c0.983,0.984 1.092,2.513 0.326,3.616c0.056,-0.039 0.111,-0.08 0.164,-0.123l-18.095,18.095c-2.052,2.052 -2.224,5.213 -0.383,7.054c1.841,1.841 5.002,1.67 7.054,-0.383l44.62,-44.62c2.052,-2.052 2.224,-5.213 0.383,-7.053c-1.841,-1.841 -5.002,-1.67 -7.054,0.382l-2.082,2.082c0.043,-0.053 0.084,-0.108 0.123,-0.164c-1.103,0.766 -2.632,0.657 -3.616,-0.326c-0.983,-0.984 -1.092,-2.513 -0.326,-3.616c-0.061,0.042 -0.12,0.087 -0.178,0.134l17.938,-17.938c2.045,-2.045 2.211,-5.2 0.37,-7.041c-1.841,-1.841 -4.996,-1.675 -7.041,0.37l-44.462,44.462c-2.045,2.045 -2.211,5.2 -0.37,7.041c1.841,1.841 4.996,1.675 7.041,-0.37l2.106,-2.106Z" style="fill:#808080;"/><text x="90.852px" y="77.251px" style="font-family:'TypoRoundRegularDemo', 'Typo Round Regular Demo';font-size:72px;fill:#808080;">pages</text></svg>